<svg xmlns="http://www.w3.org/2000/svg" width="371" height="322" viewBox="0 0 371 322">
  <g id="icons" transform="translate(-501 -589)">
    <rect id="Rectangle_1" data-name="Rectangle 1" width="371" height="322" rx="34" transform="translate(501 589)" fill="#f13e3e"/>
    <path id="Path_2" data-name="Path 2" d="M5.145,187.655H38.7a5.133,5.133,0,0,0,4.768-3.113l5.61-11.219a4.291,4.291,0,0,1,3.6-2.384H66.57c3.8,0,16.829,1.332,15.216-2.09l-8.092-24.976c.112-1.515-9.354.182-8.176-1.4l4.418-8.092a5.147,5.147,0,0,1,7.222-.982,4.922,4.922,0,0,1,1.4,1.669l26.9,49.9A5.161,5.161,0,0,0,110,187.668h68.1a5.147,5.147,0,0,0,5.161-5.147V159.3a5.161,5.161,0,0,1,9.817-2.244l13.5,27.683a5.175,5.175,0,0,0,4.642,2.889h19.016a5.175,5.175,0,0,0,4.67-2.959l12.621-26.87a5.161,5.161,0,0,1,9.817,2.188v22.438a5.161,5.161,0,0,0,5.161,5.161h27.15a5.161,5.161,0,0,0,5.161-5.161V93.386a5.161,5.161,0,0,0-5.161-5.161H244.013a5.133,5.133,0,0,0-4.712,3.085l-12.117,27.234a5.161,5.161,0,0,1-9.228.449L202.236,90.862a5.175,5.175,0,0,0-4.5-2.636h-46.84a5.147,5.147,0,0,0-5.147,5.161V165.4a5.161,5.161,0,0,1-9.817,2.258l-39-79.7a5.189,5.189,0,0,0-4.642-2.889H53.2a5.189,5.189,0,0,0-4.586,2.8L.573,180.138a5.161,5.161,0,0,0,4.572,7.517Z" transform="translate(526.996 626.686)" fill="#fff"/>
    <ellipse id="Ellipse_1" data-name="Ellipse 1" cx="22.326" cy="22.27" rx="22.326" ry="22.27" transform="translate(586.708 659.279)" fill="#fff"/>
  </g>
</svg>
