<svg xmlns="http://www.w3.org/2000/svg" width="263.736" height="246.18" viewBox="0 0 263.736 246.18">
  <g id="Group_1" data-name="Group 1" transform="translate(-864 -655)">
    <path id="Path_1" data-name="Path 1" d="M103.35,17c79.19,0,143.39,47.5,143.39,106.09s-64.2,106.09-143.39,106.09" transform="translate(863.996 655)" fill="#fff" stroke="#004256" stroke-miterlimit="10" stroke-width="34"/>
    <path id="Path_2" data-name="Path 2" d="M3.67,158.22H27.6A3.66,3.66,0,0,0,31,156l4-8a3.06,3.06,0,0,1,2.57-1.7h9.9c2.71,0,12,.95,10.85-1.49L52.55,127c.08-1.08-6.67.13-5.83-1l3.15-5.77a3.67,3.67,0,0,1,5.15-.7,3.51,3.51,0,0,1,1,1.19L75.2,156.3a3.68,3.68,0,0,0,3.24,1.93H127a3.67,3.67,0,0,0,3.68-3.67V138a3.68,3.68,0,0,1,7-1.6l9.63,19.74a3.69,3.69,0,0,0,3.31,2.06h13.56a3.69,3.69,0,0,0,3.33-2.11l9-19.16a3.68,3.68,0,0,1,7,1.56v16a3.68,3.68,0,0,0,3.68,3.68h19.36a3.68,3.68,0,0,0,3.68-3.68V91a3.68,3.68,0,0,0-3.68-3.68H174a3.66,3.66,0,0,0-3.36,2.2L162,108.94a3.68,3.68,0,0,1-6.58.32L144.21,89.2A3.69,3.69,0,0,0,141,87.32H107.6A3.67,3.67,0,0,0,103.93,91v51.35a3.68,3.68,0,0,1-7,1.61L69.12,87.13a3.7,3.7,0,0,0-3.31-2.06H37.94a3.7,3.7,0,0,0-3.27,2L.41,152.86a3.68,3.68,0,0,0,3.26,5.36Z" transform="translate(863.996 655)" fill="#004256"/>
    <ellipse id="Ellipse_1" data-name="Ellipse 1" cx="15.92" cy="15.88" rx="15.92" ry="15.88" transform="translate(906.576 702.65)" fill="#004256"/>
  </g>
</svg>
