<svg xmlns="http://www.w3.org/2000/svg" width="1920.03" height="390" viewBox="0 0 1920.03 390">
  <defs>
    <style>
      .cls-1 {
        fill: #d6d6d6;
        opacity: 0.5;
      }

      .cls-2 {
        fill: #78adf9;
      }

      .cls-3 {
        fill: #fff;
      }
    </style>
  </defs>
  <g id="Layer_2" data-name="Layer 2">
    <g id="Layer_2-2" data-name="Layer 2">
      <polygon class="cls-1" points="708.5 292.76 0 0 0.03 355 1920.03 356 708.5 292.76"/>
      <polygon class="cls-1" points="93.01 348.9 1920.03 39 1919.79 384.33 0.16 388.7 93.01 348.9"/>
      <path class="cls-2" d="M1920,362c-131.15-52.94-328.37-137-571.37-144.29C1175,212.53,1055,237.63,966.51,251c-215.19,32.4-532.82,9.63-966.35-117L.39,367,1920,368Z"/>
      <path class="cls-3" d="M1920,362c-131.15-52.94-328.37-115-571.37-122.29C1175,234.53,1055,259.63,966.51,273,751.32,305.35,433.56,311.65,0,185L.39,389,1920,390Z"/>
    </g>
  </g>
</svg>
