<svg xmlns="http://www.w3.org/2000/svg" width="1920.03" height="390" viewBox="0 0 1920.03 390">
  <defs>
    <style>
      .cls-1 {
        fill: #d6d6d6;
        opacity: 0.5;
      }

      .cls-2 {
        fill: #78adf9;
      }

      .cls-3 {
        fill: #fff;
      }
    </style>
  </defs>
  <g id="Layer_2" data-name="Layer 2">
    <g id="Layer_2-2" data-name="Layer 2">
      <polygon class="cls-1" points="1920.03 34 0.03 35 0 390 708.5 97.24 1920.03 34"/>
      <polygon class="cls-1" points="0.16 1.3 1919.79 5.67 1920.03 351 93.01 41.1 0.16 1.3"/>
      <path class="cls-2" d="M1920,22,.39,23,.16,256.07c433.53-126.65,751.16-149.42,966.35-117,88.44,13.32,208.53,38.42,382.15,33.24C1591.66,165,1788.88,80.94,1920,28Z"/>
      <path class="cls-3" d="M1920,0,.39,1,0,205C433.56,78.35,751.32,84.65,966.51,117.05c88.44,13.32,208.53,38.42,382.15,33.24C1591.66,143,1788.88,80.94,1920,28Z"/>
    </g>
  </g>
</svg>
