<svg xmlns="http://www.w3.org/2000/svg" xmlns:xlink="http://www.w3.org/1999/xlink" width="1028.12" height="823.95" viewBox="0 0 1028.12 823.95">
  <defs>
    <style>
      .cls-1 {
        fill: none;
      }

      .cls-2 {
        fill: #fff;
      }

      .cls-3 {
        opacity: 0.49;
      }

      .cls-4 {
        clip-path: url(#clip-path);
      }

      .cls-5 {
        clip-path: url(#clip-path-2);
      }

      .cls-6 {
        clip-path: url(#clip-path-3);
      }

      .cls-7 {
        clip-path: url(#clip-path-4);
      }

      .cls-8 {
        clip-path: url(#clip-path-5);
      }

      .cls-9 {
        clip-path: url(#clip-path-6);
      }

      .cls-10 {
        clip-path: url(#clip-path-7);
      }

      .cls-11 {
        clip-path: url(#clip-path-8);
      }

      .cls-12 {
        clip-path: url(#clip-path-9);
      }

      .cls-13 {
        clip-path: url(#clip-path-10);
      }

      .cls-14 {
        clip-path: url(#clip-path-11);
      }

      .cls-15 {
        clip-path: url(#clip-path-12);
      }

      .cls-16 {
        clip-path: url(#clip-path-13);
      }

      .cls-17 {
        clip-path: url(#clip-path-14);
      }

      .cls-18 {
        clip-path: url(#clip-path-15);
      }

      .cls-19 {
        clip-path: url(#clip-path-16);
      }

      .cls-20 {
        clip-path: url(#clip-path-17);
      }

      .cls-21 {
        clip-path: url(#clip-path-18);
      }

      .cls-22 {
        clip-path: url(#clip-path-19);
      }

      .cls-23 {
        clip-path: url(#clip-path-20);
      }

      .cls-24 {
        clip-path: url(#clip-path-21);
      }

      .cls-25 {
        clip-path: url(#clip-path-22);
      }

      .cls-26 {
        clip-path: url(#clip-path-23);
      }

      .cls-27 {
        clip-path: url(#clip-path-24);
      }

      .cls-28 {
        clip-path: url(#clip-path-25);
      }

      .cls-29 {
        clip-path: url(#clip-path-26);
      }
    </style>
    <clipPath id="clip-path">
      <rect class="cls-1" x="448.57" y="290.13" width="3" height="3"/>
    </clipPath>
    <clipPath id="clip-path-2">
      <rect class="cls-1" x="717.24" y="442.36" width="3" height="3"/>
    </clipPath>
    <clipPath id="clip-path-3">
      <rect class="cls-1" x="462.82" y="611.3" width="3" height="3"/>
    </clipPath>
    <clipPath id="clip-path-4">
      <rect class="cls-1" x="196.72" y="442.4" width="3" height="3"/>
    </clipPath>
    <clipPath id="clip-path-5">
      <rect class="cls-1" x="921.48" y="542.18" width="3" height="3"/>
    </clipPath>
    <clipPath id="clip-path-6">
      <rect class="cls-1" x="626.8" y="768.05" width="3" height="3"/>
    </clipPath>
    <clipPath id="clip-path-7">
      <rect class="cls-1" x="503.36" y="390.06" width="3" height="3"/>
    </clipPath>
    <clipPath id="clip-path-8">
      <rect class="cls-1" x="498.59" y="81.08" width="3" height="3"/>
    </clipPath>
    <clipPath id="clip-path-9">
      <rect class="cls-1" x="275.07" y="287.81" width="3" height="3"/>
    </clipPath>
    <clipPath id="clip-path-10">
      <rect class="cls-1" x="712.49" y="285.45" width="3" height="3"/>
    </clipPath>
    <clipPath id="clip-path-11">
      <rect class="cls-1" x="947.7" y="404.22" width="3" height="3"/>
    </clipPath>
    <clipPath id="clip-path-12">
      <rect class="cls-1" x="220.51" y="604.1" width="3" height="3"/>
    </clipPath>
    <clipPath id="clip-path-13">
      <rect class="cls-1" x="35.21" y="390.08" width="3" height="3"/>
    </clipPath>
    <clipPath id="clip-path-14">
      <rect class="cls-1" x="619.72" y="525.69" width="3" height="3"/>
    </clipPath>
    <clipPath id="clip-path-15">
      <rect class="cls-1" x="795.53" y="656.37" width="3" height="3"/>
    </clipPath>
    <clipPath id="clip-path-16">
      <rect class="cls-1" x="436.59" y="454.4" width="3" height="3"/>
    </clipPath>
    <clipPath id="clip-path-17">
      <rect class="cls-1" x="643.55" y="152.32" width="3" height="3"/>
    </clipPath>
    <clipPath id="clip-path-18">
      <rect class="cls-1" x="1026.06" y="623.01" width="3" height="3"/>
    </clipPath>
    <clipPath id="clip-path-19">
      <rect class="cls-1" x="895.38" y="140.53" width="3" height="3"/>
    </clipPath>
    <clipPath id="clip-path-20">
      <rect class="cls-1" x="396.25" y="38.31" width="3" height="3"/>
    </clipPath>
    <clipPath id="clip-path-21">
      <rect class="cls-1" x="583.43" y="372.87" width="9" height="9"/>
    </clipPath>
    <clipPath id="clip-path-22">
      <rect class="cls-1" x="483.8" y="676.92" width="9" height="9"/>
    </clipPath>
    <clipPath id="clip-path-23">
      <rect class="cls-1" x="182.21" y="330.02" width="9" height="9"/>
    </clipPath>
    <clipPath id="clip-path-24">
      <rect class="cls-1" x="887.51" y="470.21" width="9" height="9"/>
    </clipPath>
    <clipPath id="clip-path-25">
      <rect class="cls-1" x="20.55" y="491.72" width="9" height="9"/>
    </clipPath>
    <clipPath id="clip-path-26">
      <rect class="cls-1" x="419.73" y="75.9" width="9" height="9"/>
    </clipPath>
    <symbol id="_3" data-name=" 3" viewBox="0 0 17 17">
      <circle class="cls-2" cx="8.5" cy="8.5" r="8.5"/>
    </symbol>
    <symbol id="_5" data-name=" 5" viewBox="0 0 3.06 3.06">
      <use width="17" height="17" transform="scale(0.18)" xlink:href="#_3"/>
    </symbol>
    <symbol id="_1" data-name=" 1" viewBox="0 0 9.01 9.01">
      <use width="17" height="17" transform="scale(0.53)" xlink:href="#_3"/>
    </symbol>
  </defs>
  <g id="Layer_2" data-name="Layer 2">
    <g id="Layer_1-2" data-name="Layer 1">
      <g class="cls-3">
        <g class="cls-4">
          <use width="3.06" height="3.06" transform="matrix(1, 0, 0, -1, 447.57, 292.19)" xlink:href="#_5"/>
        </g>
        <g class="cls-5">
          <use width="3.06" height="3.06" transform="matrix(1, 0, 0, -1, 716.24, 444.42)" xlink:href="#_5"/>
        </g>
        <g class="cls-6">
          <use width="3.06" height="3.06" transform="matrix(1, 0, 0, -1, 461.82, 613.36)" xlink:href="#_5"/>
        </g>
        <g class="cls-7">
          <use width="3.06" height="3.06" transform="matrix(1, 0, 0, -1, 195.72, 444.46)" xlink:href="#_5"/>
        </g>
        <g class="cls-8">
          <use width="3.06" height="3.06" transform="matrix(1, 0, 0, -1, 920.48, 544.24)" xlink:href="#_5"/>
        </g>
        <g class="cls-9">
          <use width="3.06" height="3.06" transform="matrix(1, 0, 0, -1, 625.8, 770.11)" xlink:href="#_5"/>
        </g>
        <g class="cls-10">
          <use width="3.06" height="3.06" transform="matrix(1, 0, 0, -1, 502.36, 392.12)" xlink:href="#_5"/>
        </g>
        <g class="cls-11">
          <use width="3.06" height="3.06" transform="matrix(1, 0, 0, -1, 497.59, 83.14)" xlink:href="#_5"/>
        </g>
        <g class="cls-12">
          <use width="3.06" height="3.06" transform="matrix(1, 0, 0, -1, 274.07, 289.87)" xlink:href="#_5"/>
        </g>
        <g class="cls-13">
          <use width="3.06" height="3.06" transform="matrix(1, 0, 0, -1, 711.49, 287.51)" xlink:href="#_5"/>
        </g>
        <g class="cls-14">
          <use width="3.06" height="3.06" transform="matrix(1, 0, 0, -1, 946.7, 406.28)" xlink:href="#_5"/>
        </g>
        <g class="cls-15">
          <use width="3.06" height="3.06" transform="matrix(1, 0, 0, -1, 219.51, 606.16)" xlink:href="#_5"/>
        </g>
        <g class="cls-16">
          <use width="3.06" height="3.06" transform="matrix(1, 0, 0, -1, 34.21, 392.14)" xlink:href="#_5"/>
        </g>
        <g class="cls-17">
          <use width="3.06" height="3.06" transform="matrix(1, 0, 0, -1, 618.72, 527.75)" xlink:href="#_5"/>
        </g>
        <g class="cls-18">
          <use width="3.06" height="3.06" transform="matrix(1, 0, 0, -1, 794.53, 658.43)" xlink:href="#_5"/>
        </g>
        <g class="cls-19">
          <use width="3.06" height="3.06" transform="matrix(1, 0, 0, -1, 435.59, 456.46)" xlink:href="#_5"/>
        </g>
        <g class="cls-20">
          <use width="3.06" height="3.06" transform="matrix(1, 0, 0, -1, 642.55, 154.38)" xlink:href="#_5"/>
        </g>
        <g class="cls-21">
          <use width="3.06" height="3.06" transform="matrix(1, 0, 0, -1, 1025.06, 625.07)" xlink:href="#_5"/>
        </g>
        <g class="cls-22">
          <use width="3.06" height="3.06" transform="matrix(1, 0, 0, -1, 894.38, 142.59)" xlink:href="#_5"/>
        </g>
        <g class="cls-23">
          <use width="3.06" height="3.06" transform="matrix(1, 0, 0, -1, 395.25, 40.37)" xlink:href="#_5"/>
        </g>
      </g>
      <g class="cls-24">
        <use width="9.01" height="9.01" transform="matrix(1, 0, 0, -1, 582.43, 380.88)" xlink:href="#_1"/>
      </g>
      <g>
        <g class="cls-25">
          <use width="9.01" height="9.01" transform="matrix(1, 0, 0, -1, 482.8, 684.93)" xlink:href="#_1"/>
        </g>
        <g class="cls-26">
          <use width="9.01" height="9.01" transform="matrix(1, 0, 0, -1, 181.21, 338.03)" xlink:href="#_1"/>
        </g>
        <g class="cls-27">
          <use width="9.01" height="9.01" transform="matrix(1, 0, 0, -1, 886.51, 478.22)" xlink:href="#_1"/>
        </g>
        <g class="cls-28">
          <use width="9.01" height="9.01" transform="matrix(1, 0, 0, -1, 19.55, 499.73)" xlink:href="#_1"/>
        </g>
        <g class="cls-29">
          <use width="9.01" height="9.01" transform="matrix(1, 0, 0, -1, 418.73, 83.91)" xlink:href="#_1"/>
        </g>
      </g>
      <g>
        <use width="3.06" height="3.06" transform="translate(185.07 497.34)" xlink:href="#_5"/>
        <use width="3.06" height="3.06" transform="translate(267.7 526.06)" xlink:href="#_5"/>
        <use width="3.06" height="3.06" transform="translate(429.12 488)" xlink:href="#_5"/>
        <use width="3.06" height="3.06" transform="translate(307.12 346.81)" xlink:href="#_5"/>
        <use width="3.06" height="3.06" transform="translate(421.2 228)" xlink:href="#_5"/>
        <use width="3.06" height="3.06" transform="translate(668.45 484.76)" xlink:href="#_5"/>
        <use width="3.06" height="3.06" transform="translate(503.39 754.12)" xlink:href="#_5"/>
        <use width="3.06" height="3.06" transform="translate(839.45 576.67)" xlink:href="#_5"/>
        <use width="3.06" height="3.06" transform="translate(617.69 228.06)" xlink:href="#_5"/>
        <use width="3.06" height="3.06" transform="translate(538.5 443.52)" xlink:href="#_5"/>
        <use width="3.06" height="3.06" transform="translate(918.93 592.58)" xlink:href="#_5"/>
        <use width="3.06" height="3.06" transform="translate(940.99 389.68)" xlink:href="#_5"/>
        <use width="3.06" height="3.06" transform="translate(788.83 316.79)" xlink:href="#_5"/>
        <use width="3.06" height="3.06" transform="translate(855.37 142.54)" xlink:href="#_5"/>
        <use width="3.06" height="3.06" transform="translate(658.9 34.82)" xlink:href="#_5"/>
        <use width="3.06" height="3.06" transform="translate(481.39)" xlink:href="#_5"/>
        <use width="3.06" height="3.06" transform="translate(0 316.83)" xlink:href="#_5"/>
        <use width="3.06" height="3.06" transform="translate(148.69 595.87)" xlink:href="#_5"/>
        <use width="3.06" height="3.06" transform="translate(666.02 721.38)" xlink:href="#_5"/>
        <use width="3.06" height="3.06" transform="translate(664.61 717.18)" xlink:href="#_5"/>
        <use width="3.06" height="3.06" transform="translate(573.3 820.89)" xlink:href="#_5"/>
      </g>
    </g>
  </g>
</svg>
