<svg xmlns="http://www.w3.org/2000/svg" width="90.54" height="84.08" viewBox="0 0 90.54 84.08">
  <defs>
    <style>
      .cls-1 {
        fill: #999;
        opacity: 0.1;
      }

      .cls-1, .cls-2 {
        isolation: isolate;
      }

      .cls-2 {
        fill: #eda11b;
        opacity: 0.62;
      }
    </style>
  </defs>
  <g id="Layer_2" data-name="Layer 2">
    <g id="Layer_1-2" data-name="Layer 1">
      <g>
        <path class="cls-1" d="M90.44,38.58c1.33,1.42-10.68-3.18-15-4-17.26-3.3,20.83,17.83,11,32-11.22,16.18-42.27-6.58-39,1,3.75,8.71,8.86,20.77,2,15-30.91-26-67.73-37-39.15-71C39.66-23.29,83.33,31,90.44,38.58Z"/>
        <path class="cls-2" d="M80.61,32.76c.88,1-8.41-1.51-11.52-1.85C56.61,29.58,91.86,54.28,83.73,65.64c-9.29,13-43.49-6.69-41.59-1.18,2.17,6.33,8.56,16.35,3.91,12.44-20.94-17.62-54-33.67-30.83-61.22C39-12.63,75.85,27.48,80.61,32.76Z"/>
      </g>
    </g>
  </g>
</svg>
