<svg xmlns="http://www.w3.org/2000/svg" xmlns:xlink="http://www.w3.org/1999/xlink" width="1169.43" height="920.61" viewBox="0 0 1169.43 920.61">
  <defs>
    <style>
      .cls-1 {
        fill: #fff;
      }

      .cls-2 {
        fill: #004256;
      }

      .cls-3 {
        fill: #4f788d;
      }

      .cls-3, .cls-4 {
        opacity: 0.5;
      }

      .cls-4 {
        fill: none;
        stroke: #4f788d;
        stroke-miterlimit: 10;
        stroke-width: 6px;
      }

      .cls-5 {
        opacity: 0.49;
      }
    </style>
    <symbol id="_3" data-name="3" viewBox="0 0 17 17">
      <circle class="cls-1" cx="8.5" cy="8.5" r="8.5"/>
    </symbol>
    <symbol id="_5" data-name="5" viewBox="0 0 3 3">
      <use width="17" height="17" transform="scale(0.18)" xlink:href="#_3"/>
    </symbol>
    <symbol id="_1" data-name="1" viewBox="0 0 9 9">
      <use width="17" height="17" transform="scale(0.53)" xlink:href="#_3"/>
    </symbol>
  </defs>
  <g id="Layer_2" data-name="Layer 2">
    <g id="Layer_1-2" data-name="Layer 1">
      <g>
        <path class="cls-2" d="M1157.61,534.66c5.3,36,8.23,71.69,3,106.75a217.73,217.73,0,0,1-4.88,23.68,129.18,129.18,0,0,1-8,22.19h0a95.83,95.83,0,0,1-5.59,10.21c-6.93,11-16.13,20-28.16,24.73-13.3,5.22-28.13,4.36-42.36,3l-9.37-1c-26.81-2.78-54.83-6.15-81.71-5.65h0c-4.34.09-8.65.27-12.93.57A168.35,168.35,0,0,0,929.18,726h0a113.51,113.51,0,0,0-37,19.32h0c-.49.38-1,.77-1.45,1.16-12.35,10.11-21.88,22.69-30.47,36.13-.1.16-.2.32-.29.48h0c-12.36,19.39-22.78,40.53-36.84,58.71-59.31,76.66-171.25,87.67-267.13,73.45-14.41-2.15-29.26-4.91-41.23-13.21-13.28-9.22-20.59-23.13-26.12-38.48-1-2.91-2-5.88-3-8.87l0,0c-4.29-13.58-7.86-27.77-13.34-40.55-8-18.72-20.56-34.58-35.8-47.88h0a189.45,189.45,0,0,0-29.14-20.81l0,0A267.89,267.89,0,0,0,357.15,723c-47.81-16.07-98.58-22.53-145.63-40.69q-14.36-5.53-28.09-12.44c-38.14-19.14-72.53-45.73-102-76.73-2.8-2.92-5.53-5.89-8.23-8.88C19.31,524.35-18.27,438.78,10.24,363.46a137.35,137.35,0,0,1,6.65-14.86,147.26,147.26,0,0,1,20.43-29.67A153.49,153.49,0,0,1,76.43,287.2l.28-.17A144.61,144.61,0,0,1,124.89,270q1.2-.2,2.4-.36c33.75-4.86,68.1,1.68,102.24,2.7,34.94,1,73.1-5.33,96.78-31.05,19.75-21.45,25.46-51.81,35.38-79.23C385,97.59,436.54,43.92,500,18s137.8-23.72,199.58,5.94c55.59,26.68,100.2,73.72,157.78,95.73,75.48,28.84,151.39-7,227.6,7.88,34.9,6.81,69.07,28.76,80.27,62.51,9.43,28.42,1.39,57.67-8.12,86.94-1.6,4.92-3.24,9.84-4.84,14.76-3,9.34-6,18.67-8.25,28-16.43,67.05,1.36,136.78,12.22,205.88C1156.7,528.62,1157.17,531.65,1157.61,534.66Z"/>
        <path class="cls-3" d="M327,714A2694.12,2694.12,0,0,0,758.41,441.42a2694.11,2694.11,0,0,0,338.09-311,103.21,103.21,0,0,1,40.66,20.93,90.38,90.38,0,0,1,24.69,30.34A2920.8,2920.8,0,0,1,773.18,486.79a2920.74,2920.74,0,0,1-428,232.37Z"/>
        <path class="cls-3" d="M830.42,765.24q31.73-9.88,61.66-19.88c-.49.38-1,.77-1.45,1.16-12.35,10.11-21.88,22.69-30.46,36.13-.11.16-.2.32-.3.47h0q-7.8,2.07-15.69,4.1c-126.24,32.6-246.75,57.4-355.63,76.38l-3-8.87v0C591.63,832.22,708.91,803.11,830.42,765.24Z"/>
        <path class="cls-3" d="M1160.59,641.41a215.38,215.38,0,0,1-4.88,23.68,130,130,0,0,1-8,22.19h0a97.71,97.71,0,0,1-5.6,10.21q-38.11,13.28-79.89,26.74c-26.81-2.77-54.83-6.15-81.71-5.64h0c-4.34.08-8.65.26-12.92.57C1040.83,692.67,1105,666.31,1160.59,641.41Z"/>
        <path class="cls-3" d="M830.75,737.5q50.44-4.95,98.39-11.46a113.22,113.22,0,0,0-38.51,20.48c-12.35,10.11-21.88,22.69-30.46,36.13q-20.34.69-41,1.11a2920.56,2920.56,0,0,1-382.71-17.49l0,0-29.13-20.8,0,0A2693.9,2693.9,0,0,0,830.75,737.5Z"/>
        <path class="cls-3" d="M1147.7,687.28c-7.32,15.42-18.16,28.81-33.75,34.94-13.31,5.22-28.14,4.36-42.37,3-29.6-2.88-61-7.16-91.08-6.59C1039.41,709.47,1095.21,698.84,1147.7,687.28Z"/>
        <path class="cls-3" d="M1157.1,277c-1.6,4.92-3.24,9.84-4.84,14.76l-.22.25a3490.52,3490.52,0,0,1-559.73,74.52A3490.6,3490.6,0,0,1,16.89,348.6l-.15,0a122,122,0,0,1,11.61-19,115.23,115.23,0,0,1,9-10.66c4.16-4.38,8.2-8,12.13-11.49A180,180,0,0,1,72.66,289.5c1.15-.73,2.4-1.5,3.77-2.3l.28-.17a145.88,145.88,0,0,1,49.75-17.57l.83.15a3040.22,3040.22,0,0,0,452.15,46.55A3041.53,3041.53,0,0,0,1157.1,277Z"/>
        <path class="cls-3" d="M1156.23,525.59c-189.34,35.29-475.6,71.58-699.58,77.61A3473.7,3473.7,0,0,1,81.4,593.11c29.51,31,63.89,57.59,102,76.73,70.37,3,140.25,1.09,284.56-13.68,218.2-22.33,505.9-77.22,689.61-121.5Z"/>
        <path class="cls-3" d="M479.4,174.14c5-4.47,15-3.29,16.21,3.3,6.46-14.93,24.51-23.78,40.26-19.73-2.74-10.27,9.93-17.36,20.12-20.39,15.21-4.53,31.2-9.09,46.72-5.83s30,17.24,28,33a20,20,0,0,1,34.8,14.38,457.51,457.51,0,0,1,72.71,2.22c16.25,1.79,33.82,5.21,44.49,17.59,1.5,1.73,2.9,4,2.27,6.18-.86,3-4.7,3.79-7.82,4q-190.08,13.92-380.8,15.55c-10.45.09-21,.14-31.16-2.48-6.12-1.58-13-5.65-12.74-12,.34-7.22,9.34-10.14,16.52-11a570.68,570.68,0,0,1,69.76-4.37c7.73,0,23.94,3.71,30.54-.88C475.24,189.56,473.74,179.21,479.4,174.14Z"/>
        <path class="cls-3" d="M536.22,590c2.92-.73,6.51-.56,8.27-3,1.16-1.6,1-3.75,1.4-5.69,1.37-7.22,9.35-11,16.47-12.79,8.3-2.14,17.41-3.2,25.24.31s13.48,12.95,10.23,20.89c5.69,2.37,12.15-2.81,18.15-1.38,8.08,1.92,8.84,13,7.77,21.24,28-2.64,56.49-5.27,84.19-.22,6.14,1.11,12.9,3.1,15.94,8.56a6.66,6.66,0,0,1,.82,5.11c-.69,2.22-2.91,3.57-5,4.55-8.29,3.88-17.46,5.38-26.52,6.68q-33.63,4.83-67.59,6.75c-2.49.14-5.08.3-7.25,1.52s-3.55,3.22-5.34,4.82c-4.65,4.16-11.27,5.17-17.5,5.56-16.94,1.07-33.9-1.13-50.74-3.32l-32.83-4.27a175.62,175.62,0,0,1-22.13-3.85,141.66,141.66,0,0,1-23.25-8.83c-3.95-1.83-8.57-5.06-7.62-9.31.89-4,5.86-5.15,9.9-5.48,10.57-.89,27.11,2.14,36.64-2.5,7.8-3.79,11.37-14.84,22.26-10.36C526.42,598.82,529.69,591.66,536.22,590Z"/>
        <path class="cls-3" d="M201.59,478.5c10.06-.13,20.4-.33,29.7-4.17,6.08-2.51,11.48-6.48,17.62-8.82,5.55-2.12,11.52-2.84,17.42-3.54l53-6.29c15.47-1.84,32.22-4.28,43.12-15.41a842.15,842.15,0,0,0-124.74-3.74c1.07-9.8-.75-20.45-7.42-27.72s-18.95-9.73-26.63-3.54c1.55-9.15-3.88-18.39-11.4-23.84s-16.78-7.8-25.88-9.64c-7.89-1.59-16-2.89-24-1.87-19,2.43-34.19,17.76-42.73,34.91-1.32,2.66-2.69,5.55-5.32,6.93-2.28,1.19-5,1-7.57.64-13.3-1.63-26.49-4.61-39.89-4.62S19.47,411.11,9.8,420.39s-13.34,25.48-5.7,36.49c5.39,7.76,14.86,11.46,24,14C82.26,486.28,145.77,479.18,201.59,478.5Z"/>
        <path class="cls-4" d="M765,685.85a9.62,9.62,0,0,1-6.64,10.64c-4,1.13-8.53-.7-11.16-4a15.86,15.86,0,0,1-3-11.83c.4-3.29,1.76-6.64,4.49-8.51s6.19-1.92,9.46-1.93c4,0,8.25,0,11.74,2,4.5,2.57,6.77,7.84,7.67,12.94,1.33,7.48-.15,16.19-6.29,20.67-2.87,2.08-6.4,3-9.88,3.67a32.89,32.89,0,0,1-12.61.43c-6-1.21-11.26-5.16-14.92-10.09s-5.88-10.8-7.42-16.75a26.76,26.76,0,0,1-1-6.21c-.09-6.93,4.58-13.26,10.5-16.88s12.91-5,19.78-5.9c10-1.33,21.46-1.39,28.65,5.69a27.08,27.08,0,0,1,5.54,8.64,53.06,53.06,0,0,1,2.83,33.81"/>
        <path class="cls-4" d="M357.72,512.83a9.62,9.62,0,0,1-6.64,10.64c-4,1.13-8.53-.7-11.15-4a15.82,15.82,0,0,1-3-11.83c.4-3.29,1.76-6.64,4.49-8.51s6.19-1.92,9.46-1.93c4,0,8.25,0,11.74,2,4.5,2.57,6.77,7.84,7.67,12.94,1.33,7.48-.15,16.19-6.29,20.67-2.87,2.08-6.4,3-9.88,3.67a32.89,32.89,0,0,1-12.61.43c-6-1.21-11.26-5.16-14.92-10.09s-5.88-10.8-7.42-16.75a26.76,26.76,0,0,1-1-6.21c-.09-6.93,4.59-13.26,10.5-16.88s12.91-5,19.78-5.9c10-1.33,21.46-1.39,28.65,5.7a26.92,26.92,0,0,1,5.54,8.63,53.06,53.06,0,0,1,2.83,33.81"/>
        <path class="cls-4" d="M877.84,273.34A9.64,9.64,0,0,1,871.2,284c-4,1.13-8.54-.71-11.16-4a15.89,15.89,0,0,1-3-11.84c.41-3.28,1.77-6.64,4.49-8.51s6.19-1.92,9.47-1.92c4,0,8.24,0,11.73,2,4.5,2.56,6.78,7.83,7.68,12.93,1.32,7.48-.16,16.2-6.3,20.67-2.86,2.09-6.4,3-9.88,3.67a33.08,33.08,0,0,1-12.61.44c-6-1.22-11.26-5.17-14.92-10.1s-5.87-10.8-7.41-16.74a26.32,26.32,0,0,1-1-6.22c-.1-6.93,4.58-13.26,10.49-16.88s12.91-5,19.78-5.89c10-1.33,21.46-1.4,28.65,5.69a27.35,27.35,0,0,1,5.55,8.63,53.16,53.16,0,0,1,2.82,33.82"/>
        <g class="cls-5">
          <use width="3" height="3" transform="translate(521.61 329.93)" xlink:href="#_5"/>
          <use width="3" height="3" transform="translate(790.28 482.16)" xlink:href="#_5"/>
          <use width="3" height="3" transform="translate(535.86 651.1)" xlink:href="#_5"/>
          <use width="3" height="3" transform="translate(269.76 482.2)" xlink:href="#_5"/>
          <use width="3" height="3" transform="translate(994.52 581.98)" xlink:href="#_5"/>
          <use width="3" height="3" transform="translate(699.84 807.85)" xlink:href="#_5"/>
          <use width="3" height="3" transform="translate(576.4 429.86)" xlink:href="#_5"/>
          <use width="3" height="3" transform="translate(571.63 120.88)" xlink:href="#_5"/>
          <use width="3" height="3" transform="translate(348.11 327.61)" xlink:href="#_5"/>
          <use width="3" height="3" transform="translate(785.53 325.25)" xlink:href="#_5"/>
          <use width="3" height="3" transform="translate(1020.74 444.02)" xlink:href="#_5"/>
          <use width="3" height="3" transform="translate(293.55 643.9)" xlink:href="#_5"/>
          <use width="3" height="3" transform="translate(108.25 429.88)" xlink:href="#_5"/>
          <use width="3" height="3" transform="translate(692.76 565.49)" xlink:href="#_5"/>
          <use width="3" height="3" transform="translate(868.57 696.17)" xlink:href="#_5"/>
          <use width="3" height="3" transform="translate(509.63 494.2)" xlink:href="#_5"/>
          <use width="3" height="3" transform="translate(716.59 192.12)" xlink:href="#_5"/>
          <use width="3" height="3" transform="translate(1099.1 662.81)" xlink:href="#_5"/>
          <use width="3" height="3" transform="translate(968.42 180.33)" xlink:href="#_5"/>
          <use width="3" height="3" transform="translate(469.29 78.11)" xlink:href="#_5"/>
        </g>
        <use width="9" height="9" transform="translate(656.47 412.67)" xlink:href="#_1"/>
        <g>
          <use width="9" height="9" transform="translate(556.84 716.72)" xlink:href="#_1"/>
          <use width="9" height="9" transform="translate(255.25 369.82)" xlink:href="#_1"/>
          <use width="9" height="9" transform="translate(960.55 510.01)" xlink:href="#_1"/>
          <use width="9" height="9" transform="translate(93.59 531.52)" xlink:href="#_1"/>
          <use width="9" height="9" transform="translate(492.77 115.7)" xlink:href="#_1"/>
        </g>
      </g>
    </g>
  </g>
</svg>
