<svg xmlns="http://www.w3.org/2000/svg" width="269.34" height="233.15" viewBox="0 0 269.34 233.15">
  <defs>
    <style>
      .cls-1 {
        fill: #999;
        opacity: 0.1;
        isolation: isolate;
      }

      .cls-2 {
        fill: #ff3e3e;
      }

      .cls-3 {
        fill: #40a9ff;
      }

      .cls-4 {
        fill: #88e2db;
        stroke: #fff;
        stroke-miterlimit: 10;
        stroke-width: 10px;
      }
    </style>
  </defs>
  <g id="Layer_2" data-name="Layer 2">
    <g id="Layer_1-2" data-name="Layer 1">
      <g>
        <path class="cls-1" d="M169.52,185.64c2.82,33.52,34.58,34.48,28.5,43.24s-28.68,3.61-50.49-11.51-28-32.79-28.5-43.24C118.14,153.57,164.39,124.48,169.52,185.64Z"/>
        <path class="cls-1" d="M217.74,114.85c32.82-7.32,43.22,22.71,49.77,14.3s-5.11-28.45-26-44.76-39.68-17-49.78-14.3C171.79,75.38,157.82,128.2,217.74,114.85Z"/>
        <ellipse class="cls-2" cx="114.13" cy="93.61" rx="63.39" ry="120.36" transform="translate(-27.83 134.08) rotate(-55.27)"/>
        <ellipse class="cls-1" cx="113.33" cy="93.7" rx="70.88" ry="128.81" transform="translate(-28.24 133.46) rotate(-55.27)"/>
        <path class="cls-3" d="M26.06,94.42C8.48,68.17,3.35,42.15,15.2,25.05,26.8,8.32,52.09,3.81,82,10.4"/>
        <circle class="cls-4" cx="96.36" cy="81.98" r="23.18"/>
        <path class="cls-3" d="M167,191.79c2.88,26.19,28.13,27.55,23.47,34.27s-22.71,2.27-40.33-9.95S127.27,190,126.7,181.84C125.6,165.78,161.78,144,167,191.79Z"/>
        <path class="cls-3" d="M222.78,111.36c25.54-6.49,35.68,16.67,40.33,10S257.26,99.25,239.64,87s-32.5-12.29-40.33-10C183.89,81.69,176.16,123.22,222.78,111.36Z"/>
        <path class="cls-3" d="M200,153.05c19.88,1.65,33.79,19.38,36.12,16s-10-16-27.67-28.21-30.11-15.73-36.13-16C160.48,124.29,163.7,150,200,153.05Z"/>
        <path class="cls-1" d="M201.92,159.77c22.4-2,34.63,18.18,38,13.32s-8.19-18.69-25.81-30.9S183,128,176.12,128.87C162.68,130.61,161,163.37,201.92,159.77Z"/>
        <circle class="cls-1" cx="96.86" cy="82.09" r="26.41"/>
      </g>
    </g>
  </g>
</svg>
