<svg xmlns="http://www.w3.org/2000/svg" width="448.16" height="509.56" viewBox="0 0 448.16 509.56">
  <defs>
    <style>
      .cls-1 {
        opacity: 0.1;
      }

      .cls-2, .cls-3 {
        fill: #999;
      }

      .cls-2, .cls-4 {
        opacity: 0.39;
      }

      .cls-4, .cls-9 {
        fill: #d5edfb;
      }

      .cls-5 {
        fill: #ead13f;
      }

      .cls-6 {
        fill: #fff;
      }

      .cls-7 {
        fill: #ff3e3e;
      }

      .cls-8 {
        fill: #96c6df;
      }
    </style>
  </defs>
  <g id="Layer_2" data-name="Layer 2">
    <g id="Layer_1-2" data-name="Layer 1">
      <g>
        <g class="cls-1">
          <polygon class="cls-2" points="223.85 509.56 0 429.88 224.77 130.97 317.41 177.92 223.85 509.56"/>
          <ellipse class="cls-3" cx="297.11" cy="123.7" rx="52.29" ry="164.31" transform="translate(53.87 334.44) rotate(-63.51)"/>
          <circle class="cls-3" cx="419.67" cy="206.11" r="4.82"/>
          <ellipse class="cls-3" cx="407.8" cy="154.02" rx="9.37" ry="12.02" transform="translate(12.75 338.3) rotate(-45.7)"/>
          <circle class="cls-3" cx="396.95" cy="205.41" r="4.82"/>
          <circle class="cls-3" cx="127.17" cy="168.07" r="4.82"/>
          <ellipse class="cls-3" cx="299.6" cy="117.76" rx="46.92" ry="164.31" transform="translate(60.57 333.38) rotate(-63.51)"/>
          <path class="cls-3" d="M385.75,128.4c.36-.41.71-.82,1.06-1.24a3.61,3.61,0,0,0,.25-.3q1.6-1.9,3.06-4c.79-1.1,1.55-2.22,2.26-3.38.52-.81,1-1.65,1.5-2.49.61-1.07,1.19-2.16,1.75-3.28,18.38-36.88-.2-83.46-41.51-104S264.44,2.34,246.06,39.22c-.56,1.11-1.08,2.24-1.57,3.37-.39.9-.76,1.82-1.11,2.74-.48,1.25-.92,2.52-1.31,3.79-.51,1.6-.94,3.21-1.32,4.83,0,.15-.08.31-.1.47-.12.49-.22,1-.32,1.47a21.52,21.52,0,0,0,.6,3.59,41.64,41.64,0,0,0,6.73,13.65l120,59.77Z"/>
          <path class="cls-3" d="M391.33,122.4a15.17,15.17,0,0,1-5.58,6,21.9,21.9,0,0,1-3.2,1.67,41.27,41.27,0,0,1-14.94,2.83,84.39,84.39,0,0,1-13.57-.77c-15.35-2-33.76-7.77-52.41-17.06S267.29,94.54,256.44,83.5a87,87,0,0,1-8.78-10.37,41.64,41.64,0,0,1-6.73-13.65,21.52,21.52,0,0,1-.6-3.59,15.08,15.08,0,0,1,1.43-8,14,14,0,0,1,.84-1.45c.24-.37.51-.73.78-1.08a15.41,15.41,0,0,1,3.12-2.89c13.91-10,49-5.17,85,12.75s60.94,43.05,61.35,60.17a15.47,15.47,0,0,1-.43,4.17c-.11.46-.24.9-.39,1.34A14.7,14.7,0,0,1,391.33,122.4Z"/>
          <path class="cls-3" d="M386.59,127.7c.35-.42.69-.83,1-1.26l.24-.3c1-1.3,2-2.63,3-4,.77-1.11,1.51-2.24,2.21-3.41.51-.82,1-1.66,1.47-2.51.59-1.08,1.17-2.17,1.72-3.29,18.17-37,2.06-82-36-100.61S276.62,8.64,258.44,45.63c-.55,1.12-1.06,2.24-1.55,3.37-.39.91-.76,1.82-1.11,2.74-.48,1.25-.92,2.52-1.33,3.78-.52,1.59-1,3.2-1.36,4.8,0,.15-.08.31-.11.46-.12.49-.23,1-.33,1.46a21.77,21.77,0,0,0,.45,3.51A38.87,38.87,0,0,0,259,78.9l110.48,53.95Z"/>
          <path class="cls-3" d="M391.54,122a16,16,0,0,1-5.42,6.08,21.79,21.79,0,0,1-3,1.76A38.79,38.79,0,0,1,369,133.12a74.74,74.74,0,0,1-12.65-.31c-14.27-1.46-31.28-6.52-48.4-15s-31.4-19-41.16-29.54A74.34,74.34,0,0,1,259,78.35a38.85,38.85,0,0,1-5.85-13.2,21.83,21.83,0,0,1-.43-3.51,16.07,16.07,0,0,1,1.6-7.94,13.65,13.65,0,0,1,.83-1.45c.24-.38.5-.74.77-1.1a16.46,16.46,0,0,1,3-2.94c13.33-10.27,45.95-6.71,79,9.71s55.5,40.3,55.32,57.11a16.3,16.3,0,0,1-.54,4.11,13.75,13.75,0,0,1-.42,1.33A14.7,14.7,0,0,1,391.54,122Z"/>
          <ellipse class="cls-3" cx="200.08" cy="55.94" rx="9.37" ry="12.02" transform="translate(130.72 251.77) rotate(-86.12)"/>
          <ellipse class="cls-3" cx="406.83" cy="156" rx="9.37" ry="12.02" transform="translate(30.13 374.97) rotate(-51.15)"/>
          <circle class="cls-3" cx="192.94" cy="112.82" r="4.82"/>
          <circle class="cls-3" cx="179.94" cy="101.15" r="4.82"/>
          <circle class="cls-3" cx="166.19" cy="87.85" r="4.82"/>
          <circle class="cls-3" cx="371.09" cy="200.95" r="4.82"/>
        </g>
        <polygon class="cls-4" points="231.39 472.06 28.26 399.75 232.22 128.52 316.28 171.13 231.39 472.06"/>
        <ellipse class="cls-5" cx="297.86" cy="121.93" rx="47.45" ry="149.09" transform="translate(55.88 334.13) rotate(-63.51)"/>
        <circle class="cls-6" cx="409.08" cy="196.7" r="4.38"/>
        <ellipse class="cls-5" cx="398.31" cy="149.43" rx="8.5" ry="10.91" transform="translate(13.17 330.12) rotate(-45.7)"/>
        <circle class="cls-6" cx="388.46" cy="196.07" r="4.38"/>
        <ellipse class="cls-7" cx="300.13" cy="116.54" rx="42.58" ry="149.09" transform="translate(61.96 333.17) rotate(-63.51)"/>
        <path class="cls-8" d="M378.29,126.19c.33-.37.66-.75,1-1.12l.23-.27q1.45-1.74,2.77-3.59c.72-1,1.41-2,2.06-3.07.47-.74.92-1.49,1.36-2.26.55-1,1.08-2,1.58-3,16.68-33.47-.18-75.73-37.66-94.42s-81.38-6.69-98.06,26.78c-.51,1-1,2-1.42,3-.36.82-.69,1.65-1,2.49-.44,1.14-.83,2.29-1.19,3.44-.46,1.45-.85,2.92-1.19,4.38a3,3,0,0,0-.1.43c-.1.44-.2.89-.29,1.33a19.55,19.55,0,0,0,.54,3.27A37.78,37.78,0,0,0,253,76l108.83,54.24Z"/>
        <path class="cls-8" d="M383.36,120.75a13.6,13.6,0,0,1-5.07,5.44,20.71,20.71,0,0,1-2.89,1.52,37.86,37.86,0,0,1-13.57,2.57,77.65,77.65,0,0,1-12.31-.7c-13.92-1.82-30.63-7.06-47.55-15.49S270.8,95.47,261,85.44a78.39,78.39,0,0,1-8-9.4,37.78,37.78,0,0,1-6.12-12.38,19.55,19.55,0,0,1-.54-3.27,13.66,13.66,0,0,1,1.3-7.28,12.09,12.09,0,0,1,.76-1.31c.22-.34.46-.67.71-1a14.2,14.2,0,0,1,2.83-2.62c12.62-9,44.46-4.69,77.1,11.57s55.29,39.07,55.66,54.59a14.27,14.27,0,0,1-.38,3.79,11.34,11.34,0,0,1-.36,1.21A12.28,12.28,0,0,1,383.36,120.75Z"/>
        <path class="cls-9" d="M379.06,125.55c.31-.37.63-.75.93-1.14l.22-.27c.94-1.18,1.83-2.39,2.69-3.64.7-1,1.37-2,2-3.09.46-.75.91-1.51,1.34-2.28.54-1,1.06-2,1.56-3,16.48-33.56,1.87-74.43-32.66-91.29s-75.87-3.33-92.36,30.23q-.75,1.53-1.41,3.06c-.35.82-.69,1.65-1,2.49-.44,1.13-.84,2.28-1.21,3.43-.46,1.44-.87,2.9-1.23,4.35,0,.14-.07.28-.1.42-.11.45-.21.88-.3,1.33a18.85,18.85,0,0,0,.41,3.18,35.17,35.17,0,0,0,5.38,11.93l100.25,49Z"/>
        <path class="cls-9" d="M383.55,120.38a14.55,14.55,0,0,1-4.91,5.52,19.48,19.48,0,0,1-2.76,1.59,35.13,35.13,0,0,1-12.76,3,67,67,0,0,1-11.48-.28c-12.95-1.32-28.39-5.91-43.92-13.64s-28.5-17.27-37.35-26.8a68.85,68.85,0,0,1-7.14-9,35.39,35.39,0,0,1-5.3-12,20.11,20.11,0,0,1-.39-3.19A14.57,14.57,0,0,1,259,58.4c.23-.45.48-.89.75-1.31s.46-.67.71-1a14.17,14.17,0,0,1,2.73-2.68c12.09-9.31,41.69-6.08,71.64,8.82S385.19,98.8,385,114.05a14.8,14.8,0,0,1-.49,3.74,12,12,0,0,1-.38,1.2A11.42,11.42,0,0,1,383.55,120.38Z"/>
        <ellipse class="cls-5" cx="209.82" cy="60.44" rx="8.5" ry="10.91" transform="translate(135.31 265.68) rotate(-86.12)"/>
        <ellipse class="cls-5" cx="397.43" cy="151.24" rx="8.5" ry="10.91" transform="translate(30.34 365.87) rotate(-51.15)"/>
        <circle class="cls-6" cx="203.34" cy="112.05" r="4.38"/>
        <circle class="cls-6" cx="191.54" cy="101.46" r="4.38"/>
        <circle class="cls-6" cx="179.06" cy="89.4" r="4.38"/>
        <circle class="cls-6" cx="364.99" cy="192.02" r="4.38"/>
      </g>
    </g>
  </g>
</svg>
